<svg xmlns="http://www.w3.org/2000/svg" id="Layer_1" data-name="Layer 1" viewBox="0 0 512 512" width="512" height="512"><defs>
    <style>
      .cls-1 {
        fill: #fff;
      }
    </style>
  </defs><rect y="0" width="512" height="512" rx="114.78" ry="114.78"></rect><g>
    <path class="cls-1" d="M99.81,349.45c4.73,20.91,13.23,39.33,25.57,55.1,8.68,11.1,18.78,20.61,30.24,28.64,8.03,5.61,16.71,10.51,26.16,14.65,22.86,10.1,48.55,15.12,77.07,15.12,19.55,0,38.57-2.48,56.99-7.5,18.43-4.96,34.96-12.52,49.55-22.56,14.65-10.04,26.22-22.8,34.91-38.21,7.21-12.88,11.34-27.64,12.52-44.18.24-3.25.41-6.55.41-9.92,0-12.93-1.59-24.45-4.84-34.37-1.59-4.96-3.6-9.51-5.97-13.7-7.21-12.64-16.42-22.86-27.52-30.59-11.16-7.74-22.74-13.82-34.85-18.19-12.11-4.31-23.15-7.86-33.13-10.51l-7.38-2.01-59.41-16.18c-8.21-2.13-16.24-4.78-24.04-8.03-2.24-.89-4.31-1.89-6.32-2.95-5.08-2.72-9.51-5.97-13.17-9.69-5.2-5.26-7.8-12.11-7.8-20.49,0-9.03,3.19-16.89,9.51-23.51,5.91-6.08,13.47-10.81,22.56-14.23.71-.3,1.3-.59,2.01-.83,3.95-1.34,7.98-2.4,12.1-3.18,4.7-.89,9.04,2.81,9.04,7.59v2.66c0,3.07-1.18,7.86,2.95,8.44,4.19.65,8.5-7.5,10.75-10.45,2.24-2.95,4.48-5.95,6.78-8.9h.19l46.01-60.95q-.06,0-.12-.06s0,0-.01,0c0,0,0,0,.01-.01-16.54-4.84-34.73-7.44-54.45-7.68-4.07,0-8.15.06-12.11.24h0c-21.68.96-41.64,4.98-60,12.06-15.77,6.08-29.23,14.41-40.4,25.22-4.25,3.9-8.15,8.27-11.69,12.99-5.26,6.85-9.39,14.53-12.52,22.86-2.3,6.14-4.07,12.7-5.2,19.61-1.18,6.91-1.77,14.23-1.77,21.91,0,18.31,3.07,33.55,9.21,45.53,6.14,12.05,13.82,21.67,23.09,29,6.26,4.9,12.7,9.03,19.19,12.4,3.19,1.65,6.32,3.13,9.51,4.43,9.92,3.9,18.6,6.91,26.05,9.1l99.93,29.35c7.5,2.3,13.7,4.9,18.54,7.74,4.9,2.89,8.74,5.91,11.4,9.1,2.66,3.19,4.55,6.62,5.73,10.27,1.18,3.66,1.71,7.44,1.71,11.4,0,10.69-3.6,19.67-10.81,26.93-7.21,7.32-16.42,12.87-27.64,16.6-11.22,3.72-22.8,5.61-34.73,5.61-21.38,0-40.45-5.96-57.17-17.89-15.1-10.74-25.5-25.59-31.35-44.55-1.13-3.66-4.63-6.05-8.42-5.49l-56.36,8.35h0s-5,.73-5,.73c-4.38.65-7.3,4.86-6.41,9.19.28,1.34.57,2.68.87,4"></path>
    <path class="cls-1" d="M286.05,141.46c.06.1.15.19.25.26.93.67,4.39-1.08,5.57-1.47,1.98-.65,3.96-1.31,5.94-1.96,4.99-1.65,9.99-3.3,14.98-4.95,10.79-3.57,21.58-7.13,32.37-10.7,5.51-1.82,11.02-3.64,16.55-5.47l25.36-8.35c2.58-.85,3.37-4.18,1.4-6.04-6.93-6.53-14.41-12.42-22.42-17.64-2.67-1.74-4.33-4.65-4.33-7.84v-17.92c0-3.74,1.44-9.57-3.6-10.29-5.11-.79-10.36,9.14-13.1,12.74-2.16,2.88-12.89,16.52-15.88,20.49-6.49,8.62-12.97,17.24-19.46,25.86-6.26,8.31-12.51,16.63-18.77,24.94-.92,1.22-5.99,6.57-4.84,8.34Z"></path>
  </g></svg>